{
  "version": "1.1.6",
  "modules": [
    {
      "id": 26,
      "plugin": "VultModulesFree",
      "version": "1.15",
      "model": "UtilKnobs",
      "params": [
        {
          "id": 0,
          "value": 0.0
        },
        {
          "id": 1,
          "value": 1.0
        },
        {
          "id": 2,
          "value": 0.0
        },
        {
          "id": 3,
          "value": 0.0
        },
        {
          "id": 4,
          "value": 0.0
        },
        {
          "id": 5,
          "value": 0.0
        },
        {
          "id": 6,
          "value": 0.0
        },
        {
          "id": 7,
          "value": 1.0
        },
        {
          "id": 8,
          "value": 1.0
        },
        {
          "id": 9,
          "value": 1.0
        },
        {
          "id": 10,
          "value": 0.0
        },
        {
          "id": 11,
          "value": 0.0
        }
      ],
      "pos": [
        72,
        0
      ]
    },
    {
      "id": 53,
      "plugin": "JW-Modules",
      "version": "1.0.27",
      "model": "FullScope",
      "params": [
        {
          "id": 0,
          "value": -1.01000071
        },
        {
          "id": 1,
          "value": 6.6700058
        },
        {
          "id": 2,
          "value": -0.639999747
        },
        {
          "id": 3,
          "value": -10.0
        },
        {
          "id": 4,
          "value": -6.0
        },
        {
          "id": 5,
          "value": 0.0
        },
        {
          "id": 6,
          "value": 0.0
        },
        {
          "id": 7,
          "value": 0.0
        },
        {
          "id": 8,
          "value": 0.0
        }
      ],
      "leftModuleId": 62,
      "data": {
        "lissajous": 0,
        "external": 0
      },
      "width": 135.0,
      "height": 380.0,
      "pos": [
        19,
        0
      ]
    },
    {
      "id": 62,
      "plugin": "JW-Modules",
      "version": "1.0.27",
      "model": "FullScope",
      "params": [
        {
          "id": 0,
          "value": -1.01000071
        },
        {
          "id": 1,
          "value": 6.6700058
        },
        {
          "id": 2,
          "value": -0.639999747
        },
        {
          "id": 3,
          "value": -10.0
        },
        {
          "id": 4,
          "value": -6.0
        },
        {
          "id": 5,
          "value": 0.0
        },
        {
          "id": 6,
          "value": 0.0
        },
        {
          "id": 7,
          "value": 0.0
        },
        {
          "id": 8,
          "value": 0.0
        }
      ],
      "leftModuleId": 67,
      "rightModuleId": 53,
      "data": {
        "lissajous": 0,
        "external": 0
      },
      "width": 135.0,
      "height": 380.0,
      "pos": [
        10,
        0
      ]
    },
    {
      "id": 63,
      "plugin": "JW-Modules",
      "version": "1.0.27",
      "model": "FullScope",
      "params": [
        {
          "id": 0,
          "value": -1.01000071
        },
        {
          "id": 1,
          "value": 6.6700058
        },
        {
          "id": 2,
          "value": -0.639999747
        },
        {
          "id": 3,
          "value": -10.0
        },
        {
          "id": 4,
          "value": -6.0
        },
        {
          "id": 5,
          "value": 0.0
        },
        {
          "id": 6,
          "value": 0.0
        },
        {
          "id": 7,
          "value": 0.0
        },
        {
          "id": 8,
          "value": 0.0
        }
      ],
      "leftModuleId": 65,
      "data": {
        "lissajous": 0,
        "external": 0
      },
      "width": 135.0,
      "height": 380.0,
      "pos": [
        39,
        0
      ]
    },
    {
      "id": 64,
      "plugin": "JW-Modules",
      "version": "1.0.27",
      "model": "FullScope",
      "params": [
        {
          "id": 0,
          "value": -1.01000071
        },
        {
          "id": 1,
          "value": 6.6700058
        },
        {
          "id": 2,
          "value": -0.639999747
        },
        {
          "id": 3,
          "value": -10.0
        },
        {
          "id": 4,
          "value": -6.0
        },
        {
          "id": 5,
          "value": 0.0
        },
        {
          "id": 6,
          "value": 0.0
        },
        {
          "id": 7,
          "value": 0.0
        },
        {
          "id": 8,
          "value": 0.0
        }
      ],
      "leftModuleId": 66,
      "data": {
        "lissajous": 0,
        "external": 0
      },
      "width": 135.0,
      "height": 380.0,
      "pos": [
        59,
        0
      ]
    },
    {
      "id": 65,
      "plugin": "JW-Modules",
      "version": "1.0.27",
      "model": "FullScope",
      "params": [
        {
          "id": 0,
          "value": -1.01000071
        },
        {
          "id": 1,
          "value": 6.6700058
        },
        {
          "id": 2,
          "value": -0.639999747
        },
        {
          "id": 3,
          "value": -10.0
        },
        {
          "id": 4,
          "value": -6.0
        },
        {
          "id": 5,
          "value": 0.0
        },
        {
          "id": 6,
          "value": 0.0
        },
        {
          "id": 7,
          "value": 0.0
        },
        {
          "id": 8,
          "value": 0.0
        }
      ],
      "rightModuleId": 63,
      "data": {
        "lissajous": 0,
        "external": 0
      },
      "width": 135.0,
      "height": 380.0,
      "pos": [
        30,
        0
      ]
    },
    {
      "id": 66,
      "plugin": "JW-Modules",
      "version": "1.0.27",
      "model": "FullScope",
      "params": [
        {
          "id": 0,
          "value": -1.01000071
        },
        {
          "id": 1,
          "value": 6.6700058
        },
        {
          "id": 2,
          "value": -0.639999747
        },
        {
          "id": 3,
          "value": -10.0
        },
        {
          "id": 4,
          "value": -6.0
        },
        {
          "id": 5,
          "value": 0.0
        },
        {
          "id": 6,
          "value": 0.0
        },
        {
          "id": 7,
          "value": 0.0
        },
        {
          "id": 8,
          "value": 0.0
        }
      ],
      "rightModuleId": 64,
      "data": {
        "lissajous": 0,
        "external": 0
      },
      "width": 135.0,
      "height": 380.0,
      "pos": [
        50,
        0
      ]
    },
    {
      "id": 67,
      "plugin": "Core",
      "version": "1.1.6",
      "model": "MIDICCToCVInterface",
      "params": [],
      "rightModuleId": 62,
      "data": {
        "ccs": [
          0,
          1,
          2,
          3,
          4,
          5,
          6,
          7,
          8,
          9,
          10,
          11,
          12,
          13,
          14,
          15
        ],
        "values": [
          127,
          9,
          30,
          0,
          127,
          22,
          111,
          63,
          127,
          118,
          32,
          37,
          0,
          0,
          0,
          0,
          0,
          0,
          0,
          0,
          0,
          0,
          0,
          0,
          0,
          0,
          0,
          0,
          0,
          0,
          0,
          0,
          0,
          0,
          0,
          0,
          0,
          0,
          0,
          0,
          0,
          0,
          0,
          0,
          0,
          0,
          0,
          0,
          0,
          0,
          0,
          0,
          0,
          0,
          0,
          0,
          0,
          0,
          0,
          0,
          0,
          0,
          0,
          0,
          0,
          0,
          0,
          0,
          0,
          0,
          0,
          0,
          0,
          0,
          0,
          0,
          0,
          0,
          0,
          0,
          0,
          0,
          0,
          0,
          0,
          0,
          0,
          0,
          0,
          0,
          0,
          0,
          0,
          0,
          0,
          0,
          0,
          0,
          0,
          0,
          0,
          0,
          0,
          0,
          0,
          0,
          0,
          0,
          0,
          0,
          0,
          0,
          0,
          0,
          0,
          0,
          0,
          0,
          0,
          0,
          0,
          0,
          0,
          0,
          0,
          0,
          0,
          0
        ],
        "midi": {
          "driver": 4,
          "deviceName": "loop 0",
          "channel": 0
        }
      },
      "pos": [
        0,
        0
      ]
    }
  ],
  "cables": [
    {
      "id": 192,
      "outputModuleId": 26,
      "outputId": 1,
      "inputModuleId": 53,
      "inputId": 3,
      "color": "#0c8e15"
    },
    {
      "id": 197,
      "outputModuleId": 26,
      "outputId": 1,
      "inputModuleId": 62,
      "inputId": 3,
      "color": "#0986ad"
    },
    {
      "id": 202,
      "outputModuleId": 26,
      "outputId": 1,
      "inputModuleId": 64,
      "inputId": 3,
      "color": "#c9b70e"
    },
    {
      "id": 203,
      "outputModuleId": 26,
      "outputId": 1,
      "inputModuleId": 63,
      "inputId": 3,
      "color": "#0c8e15"
    },
    {
      "id": 207,
      "outputModuleId": 26,
      "outputId": 1,
      "inputModuleId": 65,
      "inputId": 3,
      "color": "#0c8e15"
    },
    {
      "id": 210,
      "outputModuleId": 26,
      "outputId": 1,
      "inputModuleId": 66,
      "inputId": 3,
      "color": "#c9b70e"
    },
    {
      "id": 211,
      "outputModuleId": 67,
      "outputId": 1,
      "inputModuleId": 53,
      "inputId": 0,
      "color": "#c91847"
    },
    {
      "id": 212,
      "outputModuleId": 67,
      "outputId": 2,
      "inputModuleId": 53,
      "inputId": 1,
      "color": "#0986ad"
    },
    {
      "id": 213,
      "outputModuleId": 67,
      "outputId": 0,
      "inputModuleId": 62,
      "inputId": 0,
      "color": "#c9b70e"
    },
    {
      "id": 214,
      "outputModuleId": 67,
      "outputId": 3,
      "inputModuleId": 62,
      "inputId": 1,
      "color": "#0c8e15"
    },
    {
      "id": 215,
      "outputModuleId": 67,
      "outputId": 4,
      "inputModuleId": 65,
      "inputId": 0,
      "color": "#c91847"
    },
    {
      "id": 216,
      "outputModuleId": 67,
      "outputId": 7,
      "inputModuleId": 65,
      "inputId": 1,
      "color": "#0986ad"
    },
    {
      "id": 217,
      "outputModuleId": 67,
      "outputId": 5,
      "inputModuleId": 63,
      "inputId": 0,
      "color": "#c9b70e"
    },
    {
      "id": 218,
      "outputModuleId": 67,
      "outputId": 6,
      "inputModuleId": 63,
      "inputId": 1,
      "color": "#0c8e15"
    },
    {
      "id": 219,
      "outputModuleId": 67,
      "outputId": 8,
      "inputModuleId": 66,
      "inputId": 0,
      "color": "#c91847"
    },
    {
      "id": 220,
      "outputModuleId": 67,
      "outputId": 11,
      "inputModuleId": 66,
      "inputId": 1,
      "color": "#0986ad"
    },
    {
      "id": 221,
      "outputModuleId": 67,
      "outputId": 9,
      "inputModuleId": 64,
      "inputId": 0,
      "color": "#c9b70e"
    },
    {
      "id": 222,
      "outputModuleId": 67,
      "outputId": 10,
      "inputModuleId": 64,
      "inputId": 1,
      "color": "#0c8e15"
    }
  ]
}