{
  "version": "1.1.6",
  "modules": [
    {
      "id": 10,
      "plugin": "Core",
      "version": "1.1.6",
      "model": "MIDICCToCVInterface",
      "params": [],
      "leftModuleId": 12,
      "rightModuleId": 11,
      "data": {
        "ccs": [
          0,
          1,
          2,
          3,
          4,
          5,
          6,
          7,
          8,
          9,
          10,
          11,
          12,
          13,
          14,
          15
        ],
        "values": [
          127,
          127,
          88,
          0,
          0,
          0,
          0,
          0,
          0,
          0,
          0,
          0,
          0,
          0,
          0,
          0,
          0,
          0,
          0,
          0,
          0,
          0,
          0,
          0,
          0,
          0,
          0,
          0,
          0,
          0,
          0,
          0,
          0,
          0,
          0,
          0,
          0,
          0,
          0,
          0,
          0,
          0,
          0,
          0,
          0,
          0,
          0,
          0,
          0,
          0,
          0,
          0,
          0,
          0,
          0,
          0,
          0,
          0,
          0,
          0,
          0,
          0,
          0,
          0,
          0,
          0,
          0,
          0,
          0,
          0,
          0,
          0,
          0,
          0,
          0,
          0,
          0,
          0,
          0,
          0,
          0,
          0,
          0,
          0,
          0,
          0,
          0,
          0,
          0,
          0,
          0,
          0,
          0,
          0,
          0,
          0,
          0,
          0,
          0,
          0,
          0,
          0,
          0,
          0,
          0,
          0,
          0,
          0,
          0,
          0,
          0,
          0,
          0,
          0,
          0,
          0,
          0,
          0,
          0,
          0,
          0,
          0,
          0,
          0,
          0,
          0,
          0,
          0
        ],
        "midi": {
          "driver": 1,
          "deviceName": "IAC Driver Bus 1",
          "channel": 0
        }
      },
      "pos": [
        82,
        0
      ]
    },
    {
      "id": 11,
      "plugin": "JW-Modules",
      "version": "1.0.21",
      "model": "FullScope",
      "params": [
        {
          "id": 0,
          "value": 0.0950001627
        },
        {
          "id": 1,
          "value": -0.5
        },
        {
          "id": 2,
          "value": -0.0700001121
        },
        {
          "id": 3,
          "value": -6.78000736
        },
        {
          "id": 4,
          "value": -6.0
        },
        {
          "id": 5,
          "value": 0.0
        },
        {
          "id": 6,
          "value": 0.0
        },
        {
          "id": 7,
          "value": 0.0
        },
        {
          "id": 8,
          "value": 0.0
        }
      ],
      "leftModuleId": 10,
      "rightModuleId": 18,
      "data": {
        "lissajous": 0,
        "external": 0
      },
      "width": 135.0,
      "height": 380.0,
      "pos": [
        92,
        0
      ]
    },
    {
      "id": 12,
      "plugin": "Core",
      "version": "1.1.6",
      "model": "CV-CC",
      "params": [],
      "leftModuleId": 26,
      "rightModuleId": 10,
      "data": {
        "ccs": [
          0,
          1,
          2,
          3,
          4,
          5,
          6,
          7,
          8,
          9,
          10,
          11,
          12,
          13,
          14,
          15
        ],
        "midi": {
          "driver": 1,
          "deviceName": "IAC Driver Bus 1",
          "channel": 0
        }
      },
      "pos": [
        72,
        0
      ]
    },
    {
      "id": 14,
      "plugin": "Core",
      "version": "1.1.6",
      "model": "AudioInterface",
      "params": [],
      "leftModuleId": 19,
      "rightModuleId": 15,
      "data": {
        "audio": {
          "driver": 5,
          "deviceName": "Apple Inc.: Built-in Output",
          "offset": 0,
          "maxChannels": 8,
          "sampleRate": 44100,
          "blockSize": 256
        }
      },
      "pos": [
        119,
        0
      ]
    },
    {
      "id": 15,
      "plugin": "Fundamental",
      "version": "1.4.0",
      "model": "Scope",
      "params": [
        {
          "id": 0,
          "value": 0.0
        },
        {
          "id": 1,
          "value": 0.0
        },
        {
          "id": 2,
          "value": 0.0
        },
        {
          "id": 3,
          "value": 0.0
        },
        {
          "id": 4,
          "value": 14.0
        },
        {
          "id": 5,
          "value": 0.0
        },
        {
          "id": 6,
          "value": 0.0
        },
        {
          "id": 7,
          "value": 0.0
        }
      ],
      "leftModuleId": 14,
      "data": {
        "lissajous": 0,
        "external": 0
      },
      "pos": [
        129,
        0
      ]
    },
    {
      "id": 17,
      "plugin": "VultModulesFree",
      "version": "1.14",
      "model": "UtilKnobs",
      "params": [
        {
          "id": 0,
          "value": 0.0
        },
        {
          "id": 1,
          "value": 1.0
        },
        {
          "id": 2,
          "value": 0.0
        },
        {
          "id": 3,
          "value": 0.0
        },
        {
          "id": 4,
          "value": 0.0
        },
        {
          "id": 5,
          "value": 0.0
        },
        {
          "id": 6,
          "value": 0.0
        },
        {
          "id": 7,
          "value": 1.0
        },
        {
          "id": 8,
          "value": 0.0
        },
        {
          "id": 9,
          "value": 0.0
        },
        {
          "id": 10,
          "value": 0.0
        },
        {
          "id": 11,
          "value": 0.0
        }
      ],
      "leftModuleId": 41,
      "rightModuleId": 26,
      "pos": [
        56,
        0
      ]
    },
    {
      "id": 18,
      "plugin": "JW-Modules",
      "version": "1.0.21",
      "model": "FullScope",
      "params": [
        {
          "id": 0,
          "value": 0.0950001627
        },
        {
          "id": 1,
          "value": -0.5
        },
        {
          "id": 2,
          "value": -0.0700001121
        },
        {
          "id": 3,
          "value": -6.78000736
        },
        {
          "id": 4,
          "value": -6.0
        },
        {
          "id": 5,
          "value": 0.0
        },
        {
          "id": 6,
          "value": 0.0
        },
        {
          "id": 7,
          "value": 0.0
        },
        {
          "id": 8,
          "value": 0.0
        }
      ],
      "leftModuleId": 11,
      "rightModuleId": 19,
      "data": {
        "lissajous": 0,
        "external": 0
      },
      "width": 135.0,
      "height": 380.0,
      "pos": [
        101,
        0
      ]
    },
    {
      "id": 19,
      "plugin": "JW-Modules",
      "version": "1.0.21",
      "model": "FullScope",
      "params": [
        {
          "id": 0,
          "value": 0.0950001627
        },
        {
          "id": 1,
          "value": -0.5
        },
        {
          "id": 2,
          "value": -0.0700001121
        },
        {
          "id": 3,
          "value": -6.78000736
        },
        {
          "id": 4,
          "value": -6.0
        },
        {
          "id": 5,
          "value": 0.0
        },
        {
          "id": 6,
          "value": 0.0
        },
        {
          "id": 7,
          "value": 0.0
        },
        {
          "id": 8,
          "value": 0.0
        }
      ],
      "leftModuleId": 18,
      "rightModuleId": 14,
      "data": {
        "lissajous": 0,
        "external": 0
      },
      "width": 135.0,
      "height": 380.0,
      "pos": [
        110,
        0
      ]
    },
    {
      "id": 21,
      "plugin": "ImpromptuModular",
      "version": "1.1.10",
      "model": "Clocked",
      "params": [
        {
          "id": 0,
          "value": 84.0
        },
        {
          "id": 1,
          "value": 2.0
        },
        {
          "id": 2,
          "value": 0.0
        },
        {
          "id": 3,
          "value": 0.0
        },
        {
          "id": 4,
          "value": 0.0
        },
        {
          "id": 5,
          "value": -0.234000012
        },
        {
          "id": 6,
          "value": 0.0
        },
        {
          "id": 7,
          "value": 0.0
        },
        {
          "id": 8,
          "value": 0.5
        },
        {
          "id": 9,
          "value": 0.5
        },
        {
          "id": 10,
          "value": 0.5
        },
        {
          "id": 11,
          "value": 0.5
        },
        {
          "id": 12,
          "value": 0.0
        },
        {
          "id": 13,
          "value": 0.0
        },
        {
          "id": 14,
          "value": 0.0
        },
        {
          "id": 15,
          "value": 0.0
        },
        {
          "id": 16,
          "value": 0.0
        },
        {
          "id": 17,
          "value": 0.0
        },
        {
          "id": 18,
          "value": 0.0
        },
        {
          "id": 19,
          "value": 0.0
        }
      ],
      "rightModuleId": 41,
      "data": {
        "panelTheme": 0,
        "running": false,
        "displayDelayNoteMode": true,
        "bpmDetectionMode": false,
        "resetOnStartStop": 0,
        "ppqn": 4,
        "resetClockOutputsHigh": true,
        "momentaryRunInput": true,
        "clockMaster": false
      },
      "pos": [
        0,
        0
      ]
    },
    {
      "id": 23,
      "plugin": "ML_modules",
      "version": "1.1.3",
      "model": "SeqSwitch",
      "params": [
        {
          "id": 0,
          "value": 4.0
        },
        {
          "id": 1,
          "value": 0.0
        },
        {
          "id": 2,
          "value": 0.0
        },
        {
          "id": 3,
          "value": 0.0
        },
        {
          "id": 4,
          "value": 0.0
        },
        {
          "id": 5,
          "value": 0.0
        },
        {
          "id": 6,
          "value": 0.0
        },
        {
          "id": 7,
          "value": 0.0
        },
        {
          "id": 8,
          "value": 0.0
        }
      ],
      "rightModuleId": 24,
      "data": {
        "inputRange": 0
      },
      "pos": [
        35,
        1
      ]
    },
    {
      "id": 24,
      "plugin": "ML_modules",
      "version": "1.1.3",
      "model": "SeqSwitch",
      "params": [
        {
          "id": 0,
          "value": 4.0
        },
        {
          "id": 1,
          "value": 0.0
        },
        {
          "id": 2,
          "value": 0.0
        },
        {
          "id": 3,
          "value": 0.0
        },
        {
          "id": 4,
          "value": 0.0
        },
        {
          "id": 5,
          "value": 0.0
        },
        {
          "id": 6,
          "value": 0.0
        },
        {
          "id": 7,
          "value": 0.0
        },
        {
          "id": 8,
          "value": 0.0
        }
      ],
      "leftModuleId": 23,
      "rightModuleId": 32,
      "data": {
        "inputRange": 0
      },
      "pos": [
        43,
        1
      ]
    },
    {
      "id": 26,
      "plugin": "VultModulesFree",
      "version": "1.14",
      "model": "UtilKnobs",
      "params": [
        {
          "id": 0,
          "value": 0.0
        },
        {
          "id": 1,
          "value": 1.0
        },
        {
          "id": 2,
          "value": 0.0
        },
        {
          "id": 3,
          "value": 0.0
        },
        {
          "id": 4,
          "value": 0.0
        },
        {
          "id": 5,
          "value": 0.0
        },
        {
          "id": 6,
          "value": 0.524000049
        },
        {
          "id": 7,
          "value": 1.0
        },
        {
          "id": 8,
          "value": 1.0
        },
        {
          "id": 9,
          "value": 1.0
        },
        {
          "id": 10,
          "value": 0.0
        },
        {
          "id": 11,
          "value": 2.0
        }
      ],
      "leftModuleId": 17,
      "rightModuleId": 12,
      "pos": [
        64,
        0
      ]
    },
    {
      "id": 32,
      "plugin": "RJModules",
      "version": "1.7.2",
      "model": "EssEff",
      "params": [
        {
          "id": 0,
          "value": 0.0
        },
        {
          "id": 1,
          "value": 0.0
        },
        {
          "id": 2,
          "value": 0.0
        },
        {
          "id": 3,
          "value": 8192.0
        },
        {
          "id": 4,
          "value": 0.0
        }
      ],
      "leftModuleId": 24,
      "pos": [
        51,
        1
      ]
    },
    {
      "id": 41,
      "plugin": "voxglitch",
      "version": "1.25.0",
      "model": "digitalsequencer",
      "params": [
        {
          "id": 0,
          "value": 0.0
        },
        {
          "id": 1,
          "value": 8.0
        },
        {
          "id": 2,
          "value": 8.0
        },
        {
          "id": 3,
          "value": 8.0
        },
        {
          "id": 4,
          "value": 8.0
        },
        {
          "id": 5,
          "value": 32.0
        },
        {
          "id": 6,
          "value": 32.0
        },
        {
          "id": 7,
          "value": 0.0
        },
        {
          "id": 8,
          "value": 0.0
        },
        {
          "id": 9,
          "value": 0.0
        },
        {
          "id": 10,
          "value": 0.0
        },
        {
          "id": 11,
          "value": 0.0
        },
        {
          "id": 12,
          "value": 0.0
        },
        {
          "id": 13,
          "value": 0.0
        }
      ],
      "leftModuleId": 21,
      "rightModuleId": 17,
      "data": {
        "patterns": [
          [
            0,
            0,
            0,
            0,
            0,
            35,
            71,
            0,
            0,
            0,
            0,
            0,
            0,
            0,
            0,
            0,
            0,
            0,
            0,
            0,
            0,
            0,
            0,
            0,
            0,
            0,
            0,
            0,
            0,
            0,
            0,
            0
          ],
          [
            72,
            44,
            74,
            107,
            128,
            0,
            0,
            0,
            0,
            0,
            0,
            0,
            0,
            0,
            0,
            0,
            0,
            0,
            0,
            0,
            0,
            0,
            0,
            0,
            0,
            0,
            0,
            0,
            0,
            0,
            0,
            0
          ],
          [
            214,
            214,
            124,
            124,
            71,
            71,
            0,
            0,
            0,
            0,
            0,
            0,
            0,
            0,
            0,
            0,
            0,
            0,
            0,
            0,
            0,
            0,
            0,
            0,
            0,
            0,
            0,
            0,
            0,
            0,
            0,
            0
          ],
          [
            124,
            89,
            71,
            35,
            0,
            0,
            0,
            0,
            0,
            0,
            0,
            0,
            0,
            0,
            0,
            0,
            0,
            0,
            0,
            0,
            0,
            0,
            0,
            0,
            0,
            0,
            0,
            0,
            0,
            0,
            0,
            0
          ],
          [
            0,
            0,
            0,
            0,
            0,
            0,
            0,
            0,
            0,
            0,
            0,
            0,
            0,
            0,
            0,
            0,
            0,
            0,
            0,
            0,
            0,
            0,
            0,
            0,
            0,
            0,
            0,
            0,
            0,
            0,
            0,
            0
          ],
          [
            0,
            0,
            0,
            0,
            0,
            0,
            0,
            0,
            0,
            0,
            0,
            0,
            0,
            0,
            0,
            0,
            0,
            0,
            0,
            0,
            0,
            0,
            0,
            0,
            0,
            0,
            0,
            0,
            0,
            0,
            0,
            0
          ]
        ],
        "gates": [
          [
            1,
            0,
            1,
            0,
            1,
            1,
            1,
            0,
            0,
            0,
            0,
            0,
            0,
            0,
            0,
            0,
            0,
            0,
            0,
            0,
            0,
            0,
            0,
            0,
            0,
            0,
            0,
            0,
            0,
            0,
            0,
            0
          ],
          [
            1,
            1,
            1,
            1,
            1,
            0,
            0,
            0,
            0,
            0,
            0,
            0,
            0,
            0,
            0,
            0,
            0,
            0,
            0,
            0,
            0,
            0,
            0,
            0,
            0,
            0,
            0,
            0,
            0,
            0,
            0,
            0
          ],
          [
            1,
            1,
            1,
            1,
            1,
            1,
            1,
            0,
            0,
            0,
            0,
            0,
            0,
            0,
            0,
            0,
            0,
            0,
            0,
            0,
            0,
            0,
            0,
            0,
            0,
            0,
            0,
            0,
            0,
            0,
            0,
            0
          ],
          [
            1,
            1,
            1,
            1,
            1,
            0,
            0,
            0,
            0,
            0,
            0,
            0,
            0,
            0,
            0,
            0,
            0,
            0,
            0,
            0,
            0,
            0,
            0,
            0,
            0,
            0,
            0,
            0,
            0,
            0,
            0,
            0
          ],
          [
            0,
            0,
            0,
            0,
            0,
            0,
            0,
            0,
            0,
            0,
            0,
            0,
            0,
            0,
            0,
            0,
            0,
            0,
            0,
            0,
            0,
            0,
            0,
            0,
            0,
            0,
            0,
            0,
            0,
            0,
            0,
            0
          ],
          [
            0,
            0,
            0,
            0,
            0,
            0,
            0,
            0,
            0,
            0,
            0,
            0,
            0,
            0,
            0,
            0,
            0,
            0,
            0,
            0,
            0,
            0,
            0,
            0,
            0,
            0,
            0,
            0,
            0,
            0,
            0,
            0
          ]
        ],
        "lengths": [
          8,
          8,
          8,
          8,
          32,
          32
        ],
        "voltage_ranges": [
          6,
          6,
          6,
          6,
          0,
          0
        ],
        "snap_divisions": [
          3,
          3,
          3,
          3,
          0,
          0
        ],
        "sample_and_hold": [
          0,
          0,
          0,
          0,
          0,
          0
        ],
        "legacy_reset": 0
      },
      "pos": [
        20,
        0
      ]
    }
  ],
  "cables": [
    {
      "id": 48,
      "outputModuleId": 17,
      "outputId": 0,
      "inputModuleId": 23,
      "inputId": 8,
      "color": "#0c8e15"
    },
    {
      "id": 55,
      "outputModuleId": 17,
      "outputId": 0,
      "inputModuleId": 24,
      "inputId": 8,
      "color": "#c91847"
    },
    {
      "id": 70,
      "outputModuleId": 17,
      "outputId": 0,
      "inputModuleId": 11,
      "inputId": 0,
      "color": "#0c8e15"
    },
    {
      "id": 71,
      "outputModuleId": 26,
      "outputId": 0,
      "inputModuleId": 18,
      "inputId": 0,
      "color": "#c91847"
    },
    {
      "id": 72,
      "outputModuleId": 17,
      "outputId": 1,
      "inputModuleId": 19,
      "inputId": 0,
      "color": "#0986ad"
    },
    {
      "id": 80,
      "outputModuleId": 32,
      "outputId": 0,
      "inputModuleId": 26,
      "inputId": 4,
      "color": "#0986ad"
    },
    {
      "id": 97,
      "outputModuleId": 26,
      "outputId": 1,
      "inputModuleId": 14,
      "inputId": 0,
      "color": "#c9b70e"
    },
    {
      "id": 98,
      "outputModuleId": 26,
      "outputId": 1,
      "inputModuleId": 14,
      "inputId": 1,
      "color": "#0c8e15"
    },
    {
      "id": 99,
      "outputModuleId": 26,
      "outputId": 1,
      "inputModuleId": 15,
      "inputId": 0,
      "color": "#c91847"
    },
    {
      "id": 112,
      "outputModuleId": 21,
      "outputId": 1,
      "inputModuleId": 41,
      "inputId": 1,
      "color": "#0986ad"
    },
    {
      "id": 113,
      "outputModuleId": 21,
      "outputId": 4,
      "inputModuleId": 41,
      "inputId": 2,
      "color": "#c9b70e"
    },
    {
      "id": 57,
      "outputModuleId": 10,
      "outputId": 1,
      "inputModuleId": 26,
      "inputId": 0,
      "color": "#c9b70e"
    },
    {
      "id": 58,
      "outputModuleId": 10,
      "outputId": 2,
      "inputModuleId": 17,
      "inputId": 4,
      "color": "#0c8e15"
    },
    {
      "id": 56,
      "outputModuleId": 10,
      "outputId": 0,
      "inputModuleId": 17,
      "inputId": 0,
      "color": "#0986ad"
    },
    {
      "id": 116,
      "outputModuleId": 41,
      "outputId": 2,
      "inputModuleId": 23,
      "inputId": 0,
      "color": "#c9b70e"
    },
    {
      "id": 117,
      "outputModuleId": 41,
      "outputId": 3,
      "inputModuleId": 23,
      "inputId": 1,
      "color": "#0c8e15"
    },
    {
      "id": 118,
      "outputModuleId": 41,
      "outputId": 4,
      "inputModuleId": 23,
      "inputId": 2,
      "color": "#c91847"
    },
    {
      "id": 119,
      "outputModuleId": 41,
      "outputId": 5,
      "inputModuleId": 23,
      "inputId": 3,
      "color": "#0986ad"
    },
    {
      "id": 120,
      "outputModuleId": 41,
      "outputId": 8,
      "inputModuleId": 24,
      "inputId": 0,
      "color": "#c9b70e"
    },
    {
      "id": 121,
      "outputModuleId": 41,
      "outputId": 9,
      "inputModuleId": 24,
      "inputId": 1,
      "color": "#0c8e15"
    },
    {
      "id": 122,
      "outputModuleId": 41,
      "outputId": 10,
      "inputModuleId": 24,
      "inputId": 2,
      "color": "#c91847"
    },
    {
      "id": 123,
      "outputModuleId": 41,
      "outputId": 11,
      "inputModuleId": 24,
      "inputId": 3,
      "color": "#0986ad"
    },
    {
      "id": 124,
      "outputModuleId": 23,
      "outputId": 0,
      "inputModuleId": 32,
      "inputId": 0,
      "color": "#0c8e15"
    },
    {
      "id": 125,
      "outputModuleId": 24,
      "outputId": 0,
      "inputModuleId": 32,
      "inputId": 1,
      "color": "#c91847"
    }
  ]
}